<?xml version="1.0" encoding="UTF-8" ?>
<!DOCTYPE svg PUBLIC "-//W3C//DTD SVG 1.1//EN" "http://www.w3.org/Graphics/SVG/1.1/DTD/svg11.dtd">
<svg width="639pt" height="298pt" viewBox="0 0 639 298" version="1.1" xmlns="http://www.w3.org/2000/svg">
<g id="#d49e22f6">
<path fill="#d49e22" opacity="0.96" d=" M 546.00 15.80 C 549.88 13.90 553.93 12.29 558.22 11.60 C 561.36 13.85 564.90 15.74 568.91 15.48 C 572.10 28.55 574.83 41.72 578.05 54.78 C 580.64 54.91 583.23 55.05 585.82 55.36 C 584.17 56.72 582.19 57.55 580.16 58.15 C 581.61 59.43 583.17 60.59 584.99 61.30 C 587.15 61.35 589.33 61.31 591.49 61.55 C 592.23 63.72 589.84 63.92 588.58 64.58 C 585.92 65.55 583.12 66.04 580.35 66.55 C 584.33 75.90 580.88 86.12 582.46 95.82 C 582.96 99.13 582.75 102.48 582.72 105.81 C 582.13 106.01 580.95 106.40 580.37 106.60 C 581.61 111.97 583.01 117.31 583.99 122.75 C 583.13 122.41 581.42 121.74 580.56 121.41 C 580.49 120.69 580.33 119.25 580.25 118.54 C 579.90 119.41 579.55 120.28 579.21 121.16 L 578.44 121.57 L 578.33 122.80 L 577.94 122.67 C 576.81 123.96 575.65 125.20 574.47 126.44 C 572.28 119.92 570.54 113.28 569.06 106.58 C 568.31 108.15 567.61 109.75 566.98 111.37 C 566.19 109.55 565.22 107.72 565.20 105.69 C 565.22 103.52 565.25 101.34 565.22 99.16 C 566.53 101.16 568.19 102.90 570.49 103.76 C 569.75 100.79 568.73 97.91 567.69 95.03 C 567.53 94.46 567.21 93.32 567.05 92.75 C 566.46 88.66 565.09 84.83 562.65 81.49 C 562.46 77.92 564.01 74.46 564.50 70.94 C 561.58 71.46 558.65 71.97 555.82 72.83 C 550.46 74.68 544.84 75.57 539.28 76.56 C 538.75 77.29 538.23 78.02 537.71 78.75 C 543.96 77.19 550.54 76.11 556.89 77.75 C 555.70 78.76 554.55 79.95 552.92 80.12 C 546.42 81.74 539.37 82.67 534.00 87.03 C 532.81 87.93 532.90 89.64 532.42 90.93 C 531.03 97.31 528.05 103.19 524.69 108.74 C 521.74 109.49 518.74 109.12 516.23 107.36 C 516.76 105.03 517.37 102.71 517.85 100.36 C 517.29 100.30 516.15 100.19 515.59 100.13 C 514.63 102.91 513.76 105.72 512.87 108.53 C 510.33 106.09 512.41 102.93 512.50 100.03 C 511.80 98.31 510.42 96.85 510.20 94.96 C 510.45 93.15 511.24 91.48 511.92 89.80 C 517.43 76.75 522.73 63.61 528.21 50.55 C 529.83 51.36 531.47 52.12 533.12 52.90 C 532.51 48.60 531.78 44.31 531.76 39.96 C 533.13 36.75 534.40 32.68 538.36 31.97 C 537.37 30.16 536.18 28.18 536.81 26.03 C 537.83 21.57 540.43 17.71 541.97 13.43 C 543.54 13.83 545.13 14.30 546.00 15.80 M 544.41 59.73 L 543.56 59.28 C 543.77 60.82 543.98 62.37 544.19 63.91 C 545.86 64.07 547.55 64.19 549.24 64.38 C 547.81 64.69 546.38 64.97 544.98 65.27 C 549.51 66.75 556.41 66.94 558.58 61.69 C 556.20 61.77 553.84 61.89 551.47 61.79 C 553.64 60.89 555.70 59.77 557.74 58.61 C 557.64 51.74 555.57 45.14 553.81 38.56 C 548.85 44.73 548.18 52.94 544.41 59.73 M 577.76 96.77 C 577.61 99.10 577.54 101.45 577.51 103.79 C 578.18 103.87 579.51 104.04 580.18 104.12 C 581.26 101.30 580.23 98.43 577.76 96.77 Z" />
<path fill="#d49e22" opacity="0.96" d=" M 414.22 17.42 C 419.01 14.11 425.67 12.11 430.69 16.13 C 436.21 15.55 441.76 15.58 447.28 16.07 C 447.50 15.46 447.92 14.23 448.14 13.62 C 449.33 14.09 450.62 14.46 451.63 15.31 C 455.15 18.30 459.64 19.79 463.23 22.69 C 468.13 26.23 471.62 31.31 474.50 36.54 C 476.03 40.63 474.28 44.99 473.50 49.06 C 473.03 48.85 472.09 48.45 471.62 48.24 C 472.23 45.30 472.91 42.36 473.00 39.34 C 470.16 40.79 468.85 43.72 467.11 46.19 C 464.29 49.62 460.29 51.81 457.30 55.07 C 462.11 55.36 466.05 52.30 470.51 51.10 C 470.34 54.68 466.43 56.03 464.99 59.01 C 472.00 63.36 476.41 70.50 480.71 77.31 C 481.47 79.26 481.55 81.68 480.98 83.68 C 473.84 92.17 463.81 97.64 453.67 101.78 C 443.54 105.73 433.78 111.06 422.86 112.55 C 421.54 111.69 420.23 110.83 418.92 109.97 C 415.84 111.58 413.21 114.00 409.94 115.24 C 409.75 114.62 409.35 113.38 409.15 112.77 C 409.06 111.40 409.00 110.04 408.93 108.68 C 407.41 107.00 405.96 105.26 404.66 103.40 C 402.51 100.03 401.27 95.85 402.38 91.88 C 405.22 80.27 407.71 68.57 410.57 56.96 C 411.67 52.70 412.50 48.36 412.61 43.95 C 412.60 35.05 416.82 26.30 414.22 17.42 M 450.14 30.33 C 446.52 29.89 442.84 29.55 439.20 29.89 C 435.91 30.93 432.70 33.45 431.87 36.92 C 431.57 37.28 430.97 37.98 430.67 38.34 C 430.46 39.52 430.27 40.71 430.06 41.89 C 430.48 43.46 430.93 45.03 431.50 46.56 C 438.00 48.84 445.37 47.85 451.24 44.28 C 451.70 45.57 452.17 46.87 452.64 48.16 C 454.70 47.23 457.00 46.47 458.50 44.68 C 461.11 42.35 463.88 39.85 464.96 36.41 C 464.50 36.06 463.56 35.37 463.09 35.03 C 461.98 34.56 460.90 34.06 459.82 33.55 L 457.82 32.69 C 459.71 31.79 461.55 30.70 462.59 28.78 C 458.41 28.53 453.99 28.40 450.14 30.33 M 452.27 65.15 C 455.88 67.64 460.39 67.91 464.59 68.59 C 462.91 63.27 456.43 65.22 452.27 65.15 M 426.69 68.91 C 425.80 75.97 424.53 82.98 424.00 90.08 C 438.58 90.06 451.04 81.54 463.78 75.58 C 466.10 76.70 470.85 77.01 469.93 73.10 C 468.33 72.41 467.03 73.53 465.76 74.32 C 464.39 71.65 461.93 69.66 459.01 68.96 C 448.39 66.00 437.46 69.64 426.69 68.91 M 475.53 79.43 C 470.84 84.94 463.54 87.09 458.79 92.51 C 465.63 90.53 472.43 87.48 477.42 82.25 C 478.30 81.28 476.73 77.93 475.53 79.43 Z" />
<path fill="#d49e22" opacity="0.96" d=" M 176.80 23.07 C 177.55 19.78 179.79 16.03 183.57 15.88 C 184.34 18.09 185.02 20.33 185.68 22.58 C 188.08 22.05 190.47 21.50 192.91 21.21 C 192.66 24.17 191.50 26.95 191.17 29.90 C 189.26 47.30 189.51 64.98 185.77 82.15 C 185.65 84.78 186.50 87.33 187.11 89.86 C 191.77 88.75 196.48 87.93 201.13 86.79 C 208.90 86.32 216.23 81.58 224.08 83.25 C 227.74 83.62 231.52 81.59 235.04 83.31 C 237.11 84.05 239.27 84.49 241.45 84.72 C 240.72 82.06 239.84 79.45 239.09 76.79 C 237.65 70.59 237.26 63.17 241.83 58.10 C 242.40 59.79 243.05 61.44 243.71 63.10 C 247.16 53.29 253.48 44.91 259.47 36.54 C 262.66 31.96 266.75 28.13 270.35 23.89 C 269.23 24.05 267.00 24.37 265.88 24.54 C 267.61 20.64 272.15 19.72 275.90 18.87 C 281.55 17.91 287.23 15.95 293.02 16.99 C 298.93 17.96 304.69 20.09 309.91 22.97 C 312.06 26.29 313.54 30.00 315.30 33.54 C 314.37 33.64 312.51 33.84 311.58 33.94 C 312.22 36.74 312.85 39.56 312.94 42.44 C 313.01 44.54 312.99 46.63 312.98 48.72 C 313.14 49.04 313.44 49.67 313.59 49.98 C 314.38 52.14 314.04 56.27 317.47 55.65 C 318.81 63.21 314.55 69.94 311.74 76.62 C 309.11 81.73 307.76 87.57 303.94 92.00 C 299.44 97.28 293.36 100.78 287.74 104.72 C 282.07 108.76 274.63 108.88 268.06 107.51 C 261.56 106.07 254.79 103.90 250.17 98.83 C 246.68 95.29 244.39 90.81 242.48 86.27 C 239.71 87.04 236.94 87.81 234.14 88.44 C 235.97 89.79 237.71 92.40 235.53 94.32 C 223.55 97.75 211.24 100.00 199.18 103.15 C 190.95 105.93 182.90 109.19 174.86 112.46 C 169.65 114.25 167.61 107.53 165.17 104.30 C 167.00 102.99 168.85 101.69 170.59 100.26 C 168.98 97.65 166.90 95.11 166.71 91.92 C 166.30 87.30 167.53 82.76 168.24 78.23 C 169.50 70.23 169.71 62.07 171.74 54.19 C 172.53 55.76 172.68 57.43 172.19 59.22 C 171.55 67.02 170.37 74.83 170.56 82.67 C 171.60 81.32 173.19 80.15 173.26 78.28 C 174.14 70.39 174.01 62.42 173.99 54.48 C 174.81 44.01 175.28 33.48 176.80 23.07 M 283.29 35.11 C 279.52 41.57 271.92 43.79 266.87 48.87 C 261.66 57.50 257.45 67.00 255.93 77.03 C 256.04 84.77 263.58 93.83 271.96 91.00 C 282.10 86.26 288.52 76.54 294.30 67.37 C 297.70 62.08 298.95 55.82 301.38 50.13 C 301.49 46.06 301.43 41.99 301.43 37.93 C 296.43 33.50 289.41 33.62 283.29 35.11 M 300.57 60.08 C 299.21 63.39 298.07 66.80 297.55 70.36 C 302.36 69.78 302.34 63.94 302.92 60.25 C 302.33 60.21 301.16 60.12 300.57 60.08 M 241.63 78.28 C 243.07 76.44 245.21 74.56 244.78 71.94 C 244.83 69.73 242.84 68.29 241.62 66.71 C 241.20 70.56 241.21 74.44 241.63 78.28 M 290.78 77.87 C 293.68 76.35 296.22 74.13 297.05 70.82 C 294.15 72.34 291.80 74.71 290.78 77.87 Z" />
<path fill="#d49e22" opacity="0.96" d=" M 117.53 19.74 C 125.19 17.93 133.25 15.21 141.11 17.61 C 146.03 19.17 151.14 20.61 155.46 23.53 C 157.07 26.87 158.65 30.22 160.47 33.45 C 159.12 33.63 157.78 33.81 156.44 33.98 C 157.05 37.17 157.86 40.34 157.90 43.60 C 157.93 46.45 158.05 49.31 158.50 52.14 C 158.97 53.14 158.88 55.07 160.45 54.87 C 161.37 53.98 162.26 53.07 163.12 52.13 C 163.06 56.31 163.09 60.64 161.38 64.55 C 156.92 76.41 152.93 89.46 142.76 97.80 C 138.25 101.04 134.14 105.14 128.71 106.80 C 119.24 109.86 108.75 107.67 100.28 102.81 C 97.43 101.09 94.40 99.29 92.68 96.33 C 89.68 91.38 87.47 86.02 84.60 81.00 C 85.12 75.54 81.80 70.22 83.62 64.84 C 84.52 61.68 85.26 58.24 87.90 56.03 C 88.42 53.40 89.90 51.15 91.63 49.16 C 90.03 53.75 88.01 58.24 87.53 63.13 C 92.02 58.81 93.01 52.37 96.51 47.41 C 99.05 43.72 101.88 40.23 104.48 36.58 C 107.14 33.01 109.67 29.14 113.50 26.71 C 116.24 25.35 118.07 22.93 117.53 19.74 M 130.37 34.54 C 125.09 36.27 122.87 42.23 117.90 44.52 C 113.21 46.76 110.02 51.14 107.81 55.71 C 104.75 62.24 102.87 69.24 100.64 76.08 C 100.48 81.52 103.97 86.56 108.14 89.82 C 111.16 92.51 115.64 91.42 118.97 89.94 C 126.20 86.46 130.61 79.43 135.13 73.14 C 140.31 65.97 144.84 57.92 145.70 48.97 C 145.78 45.17 145.64 41.38 145.74 37.59 C 141.66 33.67 135.58 33.89 130.37 34.54 M 101.29 51.61 C 99.85 54.06 98.67 56.65 97.84 59.37 C 100.85 58.33 104.50 54.48 101.29 51.61 M 145.64 60.13 C 144.09 63.50 142.60 66.91 141.76 70.53 C 147.05 70.24 147.48 64.33 147.93 60.28 C 147.36 60.24 146.21 60.17 145.64 60.13 M 153.27 64.37 C 152.30 65.77 152.00 67.56 153.17 68.95 C 156.68 69.99 156.63 62.05 153.27 64.37 M 86.55 66.78 C 86.33 70.16 86.33 73.55 86.33 76.94 C 86.89 76.85 88.02 76.67 88.58 76.58 C 90.54 73.13 89.78 69.11 86.55 66.78 M 139.38 71.24 C 138.18 73.43 137.00 75.64 135.92 77.90 C 138.48 76.50 140.49 74.38 142.01 71.91 C 141.14 71.69 140.26 71.46 139.38 71.24 M 104.09 97.36 C 104.27 100.01 107.12 100.70 109.21 101.28 C 109.25 98.40 106.87 96.51 104.09 97.36 Z" />
<path fill="#d49e22" opacity="0.96" d=" M 331.86 21.17 C 333.89 19.26 336.11 16.96 339.04 16.68 C 343.92 18.03 349.51 18.86 352.91 23.04 C 358.42 29.56 359.00 38.48 360.58 46.51 C 364.53 42.36 366.44 36.63 370.97 32.99 C 371.50 40.64 362.70 45.64 363.85 53.25 C 371.71 41.97 376.26 28.54 385.16 17.97 C 387.93 16.92 391.19 17.41 393.56 19.18 C 397.29 21.81 399.49 25.96 401.43 29.97 C 399.25 39.55 399.32 49.43 398.07 59.14 C 397.29 64.06 396.78 69.02 395.96 73.93 C 395.56 85.07 394.31 96.15 393.73 107.28 C 389.51 109.48 386.21 113.11 384.55 117.59 C 380.89 117.12 378.19 114.55 375.50 112.28 C 376.34 107.56 376.27 102.77 375.56 98.05 C 377.42 82.31 380.67 66.77 382.76 51.06 C 375.34 60.03 372.72 71.61 368.69 82.26 C 367.76 82.58 366.84 82.89 365.91 83.19 L 364.17 83.74 C 365.71 80.28 367.41 76.88 368.52 73.24 C 364.44 73.61 363.79 77.93 362.19 80.88 C 361.30 83.10 358.19 82.65 356.74 81.28 C 353.87 78.86 351.36 75.66 350.68 71.89 C 349.54 66.60 347.31 61.65 345.64 56.52 C 345.15 54.84 344.12 53.41 343.05 52.06 C 341.83 64.74 338.99 77.25 338.61 90.00 C 338.40 94.63 339.33 99.46 337.62 103.91 C 336.16 107.92 333.47 111.37 330.45 114.34 C 327.73 117.88 323.53 113.78 320.26 113.19 C 321.50 102.83 321.47 92.40 322.07 82.00 C 322.98 68.19 327.45 54.97 329.55 41.35 C 330.17 38.55 331.92 36.02 331.72 33.05 C 331.58 29.37 334.68 26.72 335.40 23.23 C 334.21 22.55 333.03 21.86 331.86 21.17 M 367.85 65.88 C 366.76 67.71 367.50 69.78 367.99 71.66 C 370.07 68.00 371.04 63.85 372.99 60.13 C 376.62 52.41 381.44 45.20 384.00 37.02 C 376.25 45.14 372.45 55.88 367.85 65.88 M 385.25 46.10 C 384.97 55.50 382.83 64.80 383.69 74.25 C 387.37 72.12 386.04 67.47 386.31 63.99 C 386.78 56.89 388.18 49.88 388.84 42.79 C 387.63 43.81 385.44 44.30 385.25 46.10 M 379.25 102.78 C 378.84 106.20 378.85 109.66 379.13 113.09 C 381.74 110.25 383.82 104.78 379.25 102.78 Z" />
<path fill="#d49e22" opacity="0.96" d=" M 495.23 19.29 C 499.21 19.53 502.97 17.24 506.90 17.81 C 509.67 19.63 512.95 21.67 513.95 25.03 C 513.89 28.38 512.64 31.55 511.79 34.75 C 507.39 49.50 506.31 64.93 504.47 80.13 C 503.75 84.75 505.00 89.36 504.73 94.00 C 504.52 102.00 502.20 110.56 496.11 116.13 C 493.12 116.11 489.98 115.27 487.70 113.26 C 487.77 110.78 488.45 108.38 489.02 105.98 C 487.42 103.95 485.32 102.27 484.19 99.92 C 487.06 87.94 486.31 75.39 488.43 63.29 C 490.00 60.19 490.30 56.74 490.64 53.34 C 492.22 54.51 493.89 55.53 495.57 56.55 C 496.11 54.41 496.63 52.26 497.12 50.12 C 495.14 50.30 493.16 50.49 491.18 50.68 C 491.49 48.02 491.95 45.37 492.77 42.81 C 493.84 44.51 495.12 46.06 496.48 47.54 C 496.95 42.89 496.73 38.06 494.50 33.85 C 494.70 34.09 495.10 34.57 495.31 34.82 C 495.09 29.64 495.20 24.46 495.23 19.29 M 492.60 110.31 C 494.51 108.94 493.99 106.49 494.21 104.47 C 490.80 104.40 489.60 108.84 492.60 110.31 Z" />
<path fill="#d49e22" opacity="0.96" d=" M 45.84 20.25 C 57.42 16.68 71.70 19.72 78.50 30.39 C 79.89 32.33 79.21 37.25 75.96 35.77 C 69.51 32.60 61.89 34.06 55.52 36.68 C 43.57 42.01 34.45 53.02 30.76 65.49 C 28.95 73.72 32.24 81.87 33.10 90.01 C 33.20 90.38 33.39 91.11 33.49 91.47 C 38.10 91.46 42.66 92.39 47.26 92.30 C 53.89 91.27 59.12 86.52 63.87 82.12 C 67.19 79.17 69.73 75.47 72.91 72.40 C 76.51 74.10 76.29 78.62 76.52 81.99 C 70.30 88.65 63.28 94.42 56.15 100.04 C 60.57 99.85 64.34 97.37 67.76 94.80 C 68.43 95.18 69.76 95.93 70.43 96.31 C 66.32 99.51 61.80 102.50 56.62 103.59 C 52.48 104.01 48.13 103.71 44.34 105.75 C 46.41 106.41 48.50 107.06 50.62 107.53 C 46.57 108.19 42.16 109.79 38.21 107.87 C 34.20 106.39 31.71 102.65 27.96 100.73 C 28.75 103.06 29.67 105.36 30.45 107.70 C 25.94 107.00 21.75 104.57 19.25 100.70 C 14.47 93.82 13.79 85.14 13.77 77.02 C 13.86 68.66 13.14 60.01 16.03 51.99 C 17.40 48.23 18.81 44.40 21.03 41.04 C 21.49 40.85 22.40 40.48 22.85 40.29 C 27.37 39.57 30.39 36.07 33.06 32.69 C 35.01 30.46 37.30 28.56 39.32 26.40 C 37.89 26.64 35.02 27.10 33.58 27.34 C 36.30 22.60 43.35 25.22 45.84 20.25 Z" />
<path fill="#d49e22" opacity="0.96" d=" M 493.20 138.17 C 495.06 137.15 497.23 134.87 499.41 136.52 C 502.37 138.72 505.23 142.03 509.36 140.52 C 511.96 149.92 513.68 159.55 515.99 169.02 C 516.95 172.42 516.91 176.23 518.76 179.30 C 521.19 180.72 524.29 179.91 527.00 180.36 C 524.91 181.61 522.56 182.28 520.22 182.88 C 521.12 183.73 522.06 184.55 523.02 185.35 C 526.19 186.86 529.76 186.67 533.18 186.71 C 530.02 189.69 525.64 190.43 521.62 191.58 C 522.31 202.71 522.52 213.88 522.68 225.02 C 523.07 227.86 521.19 230.30 521.18 233.04 C 522.12 238.13 523.97 243.15 523.66 248.39 C 522.62 247.37 521.65 246.36 520.68 245.30 C 520.54 248.75 516.72 248.81 514.25 249.86 C 512.87 244.69 511.48 239.53 510.18 234.34 L 508.37 234.18 C 508.08 234.06 507.51 233.83 507.23 233.71 C 506.60 231.97 506.76 230.06 506.61 228.24 C 507.84 227.77 509.08 227.30 510.32 226.83 C 509.71 224.95 509.10 223.08 508.42 221.24 C 507.76 219.50 507.08 217.77 506.54 216.00 C 506.11 213.52 506.05 211.00 505.94 208.50 C 505.00 209.13 504.07 209.77 503.14 210.41 C 502.79 208.55 502.45 206.71 502.12 204.86 C 504.30 202.62 506.24 199.09 503.75 196.30 C 502.03 193.84 499.23 195.83 497.33 196.86 C 491.46 199.58 484.83 199.94 478.65 201.65 C 478.98 202.12 479.64 203.07 479.96 203.54 C 482.27 202.95 484.51 202.10 486.81 201.47 L 488.14 202.26 C 489.64 203.12 491.19 203.89 492.78 204.61 C 486.47 206.53 479.51 207.80 474.58 212.54 C 473.18 213.64 472.98 215.47 472.55 217.07 C 471.22 222.89 468.30 228.16 466.13 233.69 C 463.16 233.62 460.18 233.33 457.36 232.35 C 458.19 230.07 458.82 227.70 458.89 225.27 C 457.66 224.99 456.43 224.75 455.20 224.56 C 454.69 227.01 453.97 229.46 453.99 231.98 C 454.81 232.76 455.75 233.39 456.70 234.02 C 461.29 236.20 458.77 242.20 460.84 245.99 C 458.50 247.22 456.22 248.56 453.97 249.96 C 448.47 246.45 441.94 243.91 438.27 238.20 C 439.39 235.05 437.58 232.70 435.17 230.91 C 434.66 231.38 433.62 232.30 433.11 232.76 C 422.56 223.69 416.69 210.78 410.98 198.41 C 406.90 199.77 407.28 204.65 406.41 208.08 C 406.21 213.15 406.53 218.25 406.53 223.34 C 403.66 226.15 403.22 230.21 403.73 234.02 C 401.59 233.82 399.18 233.80 398.12 231.57 C 396.36 231.93 394.62 232.36 392.84 232.53 C 390.85 230.70 388.85 228.62 387.93 226.04 C 388.55 220.86 388.97 215.65 388.64 210.43 L 389.25 210.65 C 389.39 209.07 389.56 207.49 389.95 205.95 C 390.68 202.23 391.31 198.49 392.59 194.91 L 393.10 194.67 C 394.29 193.82 396.66 193.61 396.75 191.80 C 397.22 189.81 395.04 188.82 394.01 187.51 C 394.22 185.07 394.78 182.68 395.49 180.34 C 396.36 181.34 397.22 182.34 398.09 183.34 C 401.30 175.66 402.94 167.40 404.12 159.19 C 402.74 160.28 401.38 161.38 400.13 162.61 C 398.32 162.38 392.03 163.46 394.49 160.27 C 396.67 159.01 398.92 157.87 401.09 156.56 C 399.37 156.31 397.66 156.08 395.95 155.86 C 394.33 154.89 392.70 153.92 391.16 152.83 C 390.85 152.53 390.22 151.95 389.91 151.65 C 395.93 148.66 401.59 144.71 408.10 142.84 C 415.41 142.39 422.76 142.39 430.07 142.92 C 437.54 144.21 445.01 148.96 447.55 156.40 C 449.25 160.11 448.24 164.31 448.35 168.25 C 444.84 173.61 440.86 178.67 437.82 184.32 C 442.40 182.52 444.14 176.24 449.60 176.41 C 446.51 186.39 437.95 194.16 427.78 196.42 C 427.77 198.02 427.77 199.78 429.17 200.88 C 438.00 210.02 444.34 221.22 453.05 230.46 C 455.73 226.41 450.62 223.75 450.38 220.18 C 456.11 205.16 462.32 190.30 468.86 175.62 C 469.49 176.22 470.76 177.42 471.40 178.02 C 472.37 176.71 473.34 175.40 474.28 174.06 C 471.99 172.35 471.85 169.54 471.61 166.95 C 472.85 163.84 474.39 160.86 475.67 157.76 C 476.45 157.67 478.02 157.47 478.80 157.37 C 478.01 155.94 476.84 154.66 476.50 153.03 C 478.36 148.31 480.22 143.60 481.79 138.77 C 485.54 138.88 489.82 140.57 493.20 138.17 M 417.07 159.02 C 415.43 166.83 413.31 174.58 412.65 182.56 C 421.51 178.27 429.97 172.86 436.71 165.62 C 438.97 163.41 437.51 159.45 435.01 158.06 C 431.73 156.10 427.96 154.99 424.21 154.44 C 421.50 155.00 417.61 155.73 417.07 159.02 M 441.35 161.28 C 439.96 162.49 439.82 164.32 440.09 166.03 C 443.43 168.21 444.49 161.31 441.35 161.28 M 491.05 169.00 C 489.53 173.41 487.48 177.62 485.99 182.04 C 485.07 183.09 484.14 184.14 483.24 185.19 C 484.41 186.84 485.64 188.46 486.88 190.08 C 490.50 189.92 494.45 190.61 497.71 188.60 C 497.75 188.12 497.83 187.16 497.87 186.67 C 496.01 186.62 494.16 186.79 492.31 186.81 C 494.81 185.41 497.88 183.89 498.62 180.83 C 498.24 176.77 496.66 172.91 496.07 168.86 C 495.48 167.05 495.76 164.61 494.01 163.43 C 492.24 164.76 491.89 167.08 491.05 169.00 M 480.60 175.31 C 478.75 176.79 477.11 181.95 480.94 181.38 C 482.83 177.63 484.26 173.55 484.16 169.30 C 482.04 170.66 481.24 173.02 480.60 175.31 M 466.48 185.19 C 466.05 187.00 465.63 188.82 465.25 190.65 C 468.23 190.17 469.47 187.72 469.29 184.88 C 468.59 184.96 467.19 185.11 466.48 185.19 M 517.40 221.84 C 517.73 224.98 518.02 228.73 521.65 229.81 C 521.07 226.81 521.43 222.28 517.40 221.84 M 429.20 223.41 C 429.21 224.34 429.21 226.19 429.22 227.12 C 430.26 226.93 432.72 228.56 432.68 226.75 C 433.60 224.51 430.80 223.84 429.20 223.41 Z" />
<path fill="#d49e22" opacity="0.96" d=" M 201.54 138.90 C 206.87 140.15 212.03 138.44 216.95 136.56 C 221.12 137.41 224.18 141.73 228.84 140.62 C 231.87 153.03 234.25 165.59 237.41 177.96 C 238.34 181.69 242.77 180.47 245.56 180.49 C 243.76 181.43 241.87 182.19 240.00 182.99 C 242.00 185.95 245.59 185.63 248.72 185.58 L 248.56 186.67 C 249.18 186.62 250.42 186.51 251.04 186.46 C 249.81 190.99 243.92 190.11 240.35 191.43 C 242.50 197.67 242.51 204.37 241.87 210.87 C 241.34 215.86 241.18 220.88 241.18 225.91 C 240.06 224.42 238.94 222.94 237.78 221.48 C 237.63 223.93 237.48 226.39 237.65 228.85 C 238.87 228.81 239.98 228.27 241.12 227.88 C 241.02 228.86 240.82 230.81 240.72 231.79 C 240.92 237.11 242.95 242.20 243.03 247.56 C 242.45 247.24 241.28 246.59 240.70 246.27 C 240.52 245.40 240.33 244.54 240.13 243.68 C 239.37 245.12 238.59 246.54 237.85 247.99 C 236.85 248.81 235.86 249.63 234.86 250.45 C 230.06 245.58 231.31 238.04 228.19 232.33 C 227.96 233.40 227.50 235.53 227.27 236.60 C 225.20 234.79 224.97 232.02 224.62 229.47 C 226.84 228.20 228.87 226.63 230.89 225.07 C 229.36 225.12 227.82 225.19 226.29 225.26 C 226.74 223.79 227.19 222.32 227.55 220.82 C 227.42 220.13 227.17 218.74 227.05 218.05 C 226.14 213.69 224.75 209.41 222.29 205.66 C 222.53 204.33 222.76 202.99 222.93 201.65 C 223.01 199.85 222.74 198.05 222.61 196.27 C 217.18 197.31 211.85 198.83 206.39 199.66 C 202.87 200.15 198.60 200.03 196.74 203.74 C 200.17 203.69 203.60 203.38 206.99 202.84 C 210.15 203.06 214.50 200.19 216.65 203.55 C 209.71 206.15 201.88 206.37 195.53 210.47 C 193.86 211.33 193.48 213.29 192.76 214.86 C 190.34 221.20 188.29 227.73 184.88 233.64 C 182.01 233.28 179.17 232.72 176.32 232.21 C 176.73 229.66 177.23 227.12 177.60 224.56 C 174.02 225.66 174.28 229.73 173.65 232.71 C 173.06 232.63 171.88 232.48 171.30 232.40 C 171.47 229.97 172.01 227.58 172.10 225.15 C 171.26 222.92 168.57 220.74 170.21 218.25 C 175.79 204.80 181.40 191.35 186.92 177.87 C 187.38 176.76 187.96 175.69 188.70 174.73 C 189.73 175.49 190.52 176.63 191.76 177.10 C 193.92 175.00 190.91 172.91 190.24 170.85 C 190.62 166.09 192.98 161.77 195.31 157.70 C 196.59 158.14 197.87 158.58 199.15 159.03 C 198.09 156.16 196.99 153.27 196.71 150.20 C 198.30 146.43 199.47 142.46 201.54 138.90 M 210.86 167.01 C 208.86 173.56 206.19 179.88 203.71 186.26 C 204.73 187.04 205.77 187.82 206.82 188.59 C 206.23 188.94 205.05 189.64 204.46 189.99 C 208.94 190.15 213.54 190.12 217.82 188.59 C 218.98 184.63 213.72 187.70 211.99 187.75 L 212.42 186.12 C 214.67 185.80 215.95 183.58 217.61 182.24 C 217.99 175.52 215.32 169.19 213.05 163.02 C 212.04 164.19 211.23 165.50 210.86 167.01 M 201.91 170.59 C 200.75 173.31 199.23 175.82 197.31 178.08 C 197.54 179.94 198.98 180.96 200.69 181.39 C 201.77 177.39 202.92 173.40 204.04 169.41 C 203.51 169.70 202.44 170.29 201.91 170.59 M 184.85 189.90 C 185.64 189.90 187.22 189.89 188.00 189.88 C 187.96 188.34 187.95 186.80 187.76 185.28 C 185.00 184.20 185.13 188.18 184.85 189.90 Z" />
<path fill="#d49e22" opacity="0.96" d=" M 302.82 143.08 C 303.05 140.07 306.31 138.51 308.99 138.56 C 310.87 140.17 309.93 143.29 310.58 145.50 C 311.75 144.65 312.80 143.65 313.75 142.54 C 315.50 142.52 317.31 142.36 319.02 142.91 C 319.68 145.71 317.27 148.13 317.17 150.92 C 314.56 172.81 310.90 194.59 305.99 216.08 C 303.87 222.00 302.43 228.40 298.69 233.55 C 293.80 237.63 287.53 241.32 280.93 240.51 C 276.38 240.28 271.37 242.64 267.21 239.84 C 264.03 238.05 263.21 234.24 262.10 231.07 C 259.41 229.67 256.31 228.64 254.73 225.86 C 256.24 225.06 259.13 225.32 259.19 222.99 C 259.55 220.00 258.61 217.04 258.85 214.06 C 260.01 210.52 260.96 206.87 260.71 203.10 L 261.02 202.36 C 263.70 200.61 266.62 198.51 270.00 198.86 C 271.88 201.17 271.18 204.95 273.94 206.80 C 274.04 204.59 272.61 202.06 274.06 200.06 C 276.20 199.75 277.20 201.93 278.29 203.34 C 279.61 208.73 275.32 214.84 279.53 219.57 C 280.08 220.41 280.87 220.94 281.88 221.16 C 283.50 218.73 284.09 215.82 285.09 213.11 L 286.22 213.08 C 292.14 213.87 293.69 206.52 293.86 202.01 C 294.25 195.22 296.40 188.70 297.06 181.94 C 299.14 169.01 300.01 155.88 302.82 143.08 Z" />
<path fill="#d49e22" opacity="0.96" d=" M 72.20 141.28 C 75.14 141.38 78.09 142.12 80.84 143.14 C 83.38 145.05 84.98 149.08 88.81 148.07 C 92.24 160.44 95.93 173.01 95.61 185.98 C 95.31 191.81 96.65 197.53 97.11 203.32 L 97.16 201.06 L 98.68 201.69 C 100.20 197.91 101.79 194.07 104.51 190.97 C 105.90 189.07 106.93 186.95 107.91 184.83 C 109.97 180.33 113.48 176.74 116.25 172.69 L 117.16 172.48 C 117.52 172.40 118.26 172.22 118.62 172.13 C 119.04 170.60 119.38 169.05 119.83 167.53 C 122.61 163.41 125.84 159.42 129.81 156.39 C 132.77 156.37 137.52 159.88 134.22 162.76 C 132.28 164.57 131.22 167.02 130.70 169.59 C 132.48 168.43 134.18 167.17 135.86 165.87 C 136.98 166.81 138.10 167.77 139.27 168.65 C 122.43 186.77 114.10 210.58 100.35 230.80 C 98.73 230.54 97.11 230.28 95.49 230.04 C 94.34 231.70 93.56 234.47 91.02 234.21 C 87.33 233.70 84.01 231.78 80.56 230.46 C 78.41 228.40 79.46 225.29 80.33 222.90 C 82.11 217.45 81.64 211.65 81.08 206.05 C 80.22 198.32 80.10 190.53 79.12 182.82 C 77.94 174.34 77.94 165.62 75.31 157.39 C 73.57 152.69 72.92 147.70 71.64 142.87 C 71.78 142.47 72.06 141.68 72.20 141.28 M 82.61 196.31 C 83.60 192.40 84.08 188.34 83.80 184.30 C 81.27 187.69 83.04 192.39 82.61 196.31 Z" />
<path fill="#d49e22" opacity="0.96" d=" M 155.44 143.98 C 159.16 143.25 162.97 142.07 166.79 142.72 C 169.43 143.96 171.98 145.81 173.36 148.45 C 174.69 151.04 173.27 153.85 172.55 156.40 C 167.51 171.79 167.10 188.15 163.73 203.90 C 162.97 206.97 162.51 210.10 162.32 213.25 C 162.73 213.71 163.55 214.63 163.96 215.08 C 166.43 219.28 162.76 224.29 163.55 228.88 C 161.30 232.48 159.59 236.49 156.94 239.80 C 153.93 240.23 150.29 240.29 147.88 238.17 C 145.90 236.05 148.73 233.45 148.75 231.07 C 148.05 229.45 146.67 228.28 145.54 226.96 C 145.28 210.13 147.50 193.39 150.63 176.89 C 151.80 178.46 152.97 180.04 154.18 181.59 C 155.53 178.75 156.61 175.77 156.92 172.63 C 154.98 173.57 153.13 174.68 151.49 176.09 C 151.32 173.16 151.90 170.28 152.93 167.55 C 153.66 169.17 154.49 170.74 155.33 172.31 C 155.67 168.83 158.69 163.36 154.12 161.42 C 154.51 155.60 155.37 149.82 155.44 143.98 Z" />
<path fill="#d49e22" opacity="0.96" d=" M 332.73 143.55 C 349.23 144.08 365.70 142.28 382.19 142.76 C 383.64 143.63 385.08 144.58 386.30 145.76 C 386.03 150.00 383.29 153.48 379.74 155.57 C 373.49 155.69 367.13 154.89 360.99 156.34 C 358.64 156.69 356.27 156.32 353.94 156.12 C 351.80 155.43 349.65 155.90 347.67 156.82 C 347.56 157.80 347.45 158.79 347.34 159.78 C 352.00 159.90 356.65 160.06 361.31 160.38 L 359.99 162.33 C 355.61 163.01 351.18 163.33 346.79 163.91 C 345.81 168.69 344.08 173.50 345.04 178.44 C 355.61 177.40 366.49 177.91 376.62 174.27 C 376.38 176.75 375.81 179.17 375.45 181.63 C 377.60 181.33 379.71 180.85 381.83 180.33 C 382.16 181.56 383.56 183.16 382.33 184.29 C 372.97 188.49 362.92 191.12 352.71 192.06 C 348.15 192.36 343.56 191.94 339.02 192.60 C 338.74 194.42 338.49 196.23 338.16 198.04 C 337.62 200.48 336.40 202.68 335.27 204.87 C 334.70 202.28 333.76 199.79 332.75 197.34 C 331.25 202.44 330.16 207.73 329.95 213.05 C 332.44 214.46 335.46 213.24 338.14 213.09 C 344.72 212.14 351.31 210.83 357.99 211.25 C 366.52 210.31 375.36 209.70 383.81 211.48 C 383.33 214.40 383.08 217.75 380.96 220.01 C 377.71 222.93 373.01 222.25 369.00 222.74 C 369.06 223.15 369.17 223.97 369.23 224.38 C 371.98 224.50 374.70 223.51 377.44 223.94 C 377.63 224.44 378.00 225.46 378.19 225.96 C 361.17 228.60 344.15 231.22 327.10 233.61 C 323.58 233.58 317.91 234.23 316.55 230.02 C 317.70 225.87 318.59 221.61 320.25 217.62 C 321.46 218.08 322.67 218.55 323.89 219.01 C 324.84 214.44 325.64 209.76 325.16 205.07 C 324.38 198.85 325.00 192.57 324.22 186.35 C 324.10 178.38 325.49 170.50 326.56 162.63 C 327.17 162.88 328.39 163.38 328.99 163.63 C 328.89 157.53 328.82 151.37 330.10 145.36 C 330.97 144.76 331.85 144.15 332.73 143.55 Z" />
<path fill="#d49e22" opacity="0.96" d=" M 340.39 195.43 C 343.87 194.16 347.62 194.33 351.26 194.48 C 350.38 194.88 349.50 195.28 348.62 195.66 C 345.88 195.99 343.11 195.76 340.39 195.43 Z" />
<path fill="#d49e22" opacity="0.96" d=" M 328.99 267.05 C 328.81 264.52 331.32 263.73 333.01 262.56 C 349.83 262.38 366.64 262.86 383.45 262.67 L 383.49 263.45 C 390.84 263.11 398.17 262.31 405.55 262.51 C 445.04 263.09 484.55 262.47 524.05 262.80 C 533.38 262.25 542.67 264.20 551.98 263.06 C 568.66 262.29 585.36 263.07 602.04 262.92 C 606.32 262.51 609.52 265.84 613.41 266.95 C 618.04 268.29 622.89 267.21 627.61 267.78 C 628.62 267.93 629.64 268.10 630.66 268.31 C 630.65 268.81 630.63 269.81 630.63 270.31 C 622.80 271.92 614.84 271.10 606.95 271.77 C 601.30 272.33 595.75 273.77 590.07 273.98 C 584.38 274.23 578.72 273.07 573.03 273.51 C 569.90 275.07 566.34 274.78 562.96 274.78 C 558.95 274.71 554.95 274.84 550.96 274.63 C 538.62 273.08 526.34 275.71 514.01 275.43 C 510.72 275.42 507.46 276.46 504.17 275.88 C 494.64 274.40 485.03 277.32 475.50 275.66 C 472.56 275.06 469.66 275.88 467.00 277.10 C 462.54 276.45 458.12 275.64 453.65 275.13 C 452.54 276.25 451.43 277.37 450.32 278.49 C 447.67 278.08 445.02 277.67 442.38 277.24 C 445.38 276.50 448.42 275.90 451.43 275.20 C 446.00 275.55 440.56 275.79 435.14 275.31 C 435.31 275.87 435.66 277.01 435.84 277.58 C 432.05 277.52 428.27 277.52 424.48 277.59 C 424.48 277.21 424.49 276.45 424.49 276.07 C 414.05 274.95 403.58 275.91 393.13 275.59 C 387.38 275.42 381.69 276.43 375.95 276.39 C 368.47 276.47 361.01 275.69 353.54 276.14 C 351.52 276.18 349.51 275.96 347.51 275.70 C 343.02 275.04 338.46 275.10 333.93 275.22 C 333.01 274.14 332.10 273.07 331.18 272.00 C 332.65 270.58 334.11 269.17 335.57 267.74 C 333.37 267.53 331.17 267.31 328.99 267.05 Z" />
</g>
<g id="#49370b8d">
<path fill="#49370b" opacity="0.55" d=" M 380.25 15.00 C 382.39 14.72 383.61 16.88 385.16 17.97 C 376.26 28.54 371.71 41.97 363.85 53.25 C 362.70 45.64 371.50 40.64 370.97 32.99 C 370.97 32.68 370.97 32.07 370.97 31.76 C 372.02 28.29 374.12 25.27 376.90 22.96 C 377.69 20.19 378.50 17.34 380.25 15.00 Z" />
<path fill="#49370b" opacity="0.55" d=" M 109.94 23.74 C 111.19 20.80 114.79 20.33 117.53 19.74 C 118.07 22.93 116.24 25.35 113.50 26.71 C 112.30 25.74 111.07 24.81 109.94 23.74 Z" />
<path fill="#49370b" opacity="0.55" d=" M 450.14 30.33 C 453.99 28.40 458.41 28.53 462.59 28.78 C 461.55 30.70 459.71 31.79 457.82 32.69 C 455.35 31.64 452.77 30.86 450.14 30.33 Z" />
<path fill="#49370b" opacity="0.55" d=" M 22.85 40.29 C 24.45 36.80 26.58 33.51 29.74 31.25 C 30.57 31.61 32.23 32.33 33.06 32.69 C 30.39 36.07 27.37 39.57 22.85 40.29 Z" />
<path fill="#49370b" opacity="0.55" d=" M 459.82 33.55 C 460.90 34.06 461.98 34.56 463.09 35.03 C 462.85 36.58 462.63 38.12 462.42 39.67 C 459.88 39.99 457.33 40.28 454.79 40.52 C 456.42 38.17 458.13 35.87 459.82 33.55 Z" />
<path fill="#49370b" opacity="0.55" d=" M 91.63 49.16 C 93.37 43.86 97.67 40.00 100.97 35.65 C 102.13 35.97 103.31 36.28 104.48 36.58 C 101.88 40.23 99.05 43.72 96.51 47.41 C 93.01 52.37 92.02 58.81 87.53 63.13 C 88.01 58.24 90.03 53.75 91.63 49.16 Z" />
<path fill="#49370b" opacity="0.55" d=" M 255.89 35.73 C 257.08 36.01 258.27 36.28 259.47 36.54 C 253.48 44.91 247.16 53.29 243.71 63.10 C 243.05 61.44 242.40 59.79 241.83 58.10 C 241.56 54.81 244.27 52.48 245.75 49.83 C 248.58 44.76 252.15 40.16 255.89 35.73 Z" />
<path fill="#49370b" opacity="0.55" d=" M 494.50 33.85 C 496.73 38.06 496.95 42.89 496.48 47.54 C 495.12 46.06 493.84 44.51 492.77 42.81 C 492.66 39.73 492.98 36.59 494.50 33.85 Z" />
<path fill="#49370b" opacity="0.55" d=" M 430.67 38.34 C 430.97 37.98 431.57 37.28 431.87 36.92 C 431.68 40.13 431.67 43.35 431.50 46.56 C 430.93 45.03 430.48 43.46 430.06 41.89 C 430.27 40.71 430.46 39.52 430.67 38.34 Z" />
<path fill="#49370b" opacity="0.55" d=" M 160.52 38.42 C 161.45 39.48 162.88 40.38 162.96 41.95 C 163.40 44.25 161.05 45.42 159.86 46.97 C 158.35 48.24 158.82 50.41 158.50 52.14 C 158.05 49.31 157.93 46.45 157.90 43.60 C 158.65 41.82 159.60 40.12 160.52 38.42 Z" />
<path fill="#49370b" opacity="0.55" d=" M 315.62 38.47 C 318.99 40.24 318.73 46.39 314.19 45.96 C 314.02 47.31 313.82 48.65 313.59 49.98 C 313.44 49.67 313.14 49.04 312.98 48.72 C 312.99 46.63 313.01 44.54 312.94 42.44 C 313.83 41.12 314.72 39.79 315.62 38.47 Z" />
<path fill="#49370b" opacity="0.55" d=" M 530.34 48.00 C 530.53 45.29 530.31 42.39 531.76 39.96 C 531.78 44.31 532.51 48.60 533.12 52.90 C 531.47 52.12 529.83 51.36 528.21 50.55 C 528.88 49.66 529.61 48.84 530.34 48.00 Z" />
<path fill="#49370b" opacity="0.55" d=" M 451.24 44.28 C 453.67 43.05 456.12 41.86 458.61 40.73 C 458.58 41.72 458.53 43.69 458.50 44.68 C 457.00 46.47 454.70 47.23 452.64 48.16 C 452.17 46.87 451.70 45.57 451.24 44.28 Z" />
<path fill="#49370b" opacity="0.55" d=" M 170.67 41.90 C 175.91 44.14 172.16 50.17 171.74 54.19 C 169.71 62.07 169.50 70.23 168.24 78.23 C 167.55 73.47 167.56 68.62 168.92 63.97 C 169.12 56.59 169.42 49.20 170.67 41.90 Z" />
<path fill="#49370b" opacity="0.55" d=" M 385.25 46.10 C 385.44 44.30 387.63 43.81 388.84 42.79 C 388.18 49.88 386.78 56.89 386.31 63.99 C 386.04 67.47 387.37 72.12 383.69 74.25 C 382.83 64.80 384.97 55.50 385.25 46.10 Z" />
<path fill="#49370b" opacity="0.55" d=" M 491.18 50.68 C 493.16 50.49 495.14 50.30 497.12 50.12 C 496.63 52.26 496.11 54.41 495.57 56.55 C 493.89 55.53 492.22 54.51 490.64 53.34 C 490.78 52.68 491.05 51.35 491.18 50.68 Z" />
<path fill="#49370b" opacity="0.55" d=" M 101.29 51.61 C 104.50 54.48 100.85 58.33 97.84 59.37 C 98.67 56.65 99.85 54.06 101.29 51.61 Z" />
<path fill="#49370b" opacity="0.55" d=" M 172.19 59.22 C 172.47 57.53 173.27 56.01 173.99 54.48 C 174.01 62.42 174.14 70.39 173.26 78.28 C 173.19 80.15 171.60 81.32 170.56 82.67 C 170.37 74.83 171.55 67.02 172.19 59.22 Z" />
<path fill="#49370b" opacity="0.55" d=" M 543.56 59.28 L 544.41 59.73 C 546.56 60.97 548.96 61.79 551.47 61.79 C 553.84 61.89 556.20 61.77 558.58 61.69 C 556.41 66.94 549.51 66.75 544.98 65.27 C 546.38 64.97 547.81 64.69 549.24 64.38 C 547.55 64.19 545.86 64.07 544.19 63.91 C 543.98 62.37 543.77 60.82 543.56 59.28 Z" />
<path fill="#49370b" opacity="0.55" d=" M 153.27 64.37 C 156.63 62.05 156.68 69.99 153.17 68.95 C 152.00 67.56 152.30 65.77 153.27 64.37 Z" />
<path fill="#49370b" opacity="0.55" d=" M 452.27 65.15 C 456.43 65.22 462.91 63.27 464.59 68.59 C 460.39 67.91 455.88 67.64 452.27 65.15 Z" />
<path fill="#49370b" opacity="0.55" d=" M 86.55 66.78 C 89.78 69.11 90.54 73.13 88.58 76.58 C 88.02 76.67 86.89 76.85 86.33 76.94 C 86.33 73.55 86.33 70.16 86.55 66.78 Z" />
<path fill="#49370b" opacity="0.55" d=" M 241.63 78.28 C 241.21 74.44 241.20 70.56 241.62 66.71 C 242.84 68.29 244.83 69.73 244.78 71.94 C 245.21 74.56 243.07 76.44 241.63 78.28 Z" />
<path fill="#49370b" opacity="0.55" d=" M 62.12 76.12 C 64.75 73.75 66.77 70.22 70.56 69.59 C 68.82 74.08 64.90 77.07 62.38 81.02 L 63.87 82.12 C 59.12 86.52 53.89 91.27 47.26 92.30 C 42.66 92.39 38.10 91.46 33.49 91.47 C 33.39 91.11 33.20 90.38 33.10 90.01 C 44.57 91.01 54.50 83.90 62.12 76.12 Z" />
<path fill="#49370b" opacity="0.55" d=" M 139.38 71.24 C 140.26 71.46 141.14 71.69 142.01 71.91 C 140.49 74.38 138.48 76.50 135.92 77.90 C 137.00 75.64 138.18 73.43 139.38 71.24 Z" />
<path fill="#49370b" opacity="0.55" d=" M 290.78 77.87 C 291.80 74.71 294.15 72.34 297.05 70.82 C 296.22 74.13 293.68 76.35 290.78 77.87 Z" />
<path fill="#49370b" opacity="0.55" d=" M 555.82 72.83 C 558.65 71.97 561.58 71.46 564.50 70.94 C 564.01 74.46 562.46 77.92 562.65 81.49 C 565.09 84.83 566.46 88.66 567.05 92.75 C 565.52 94.21 564.33 96.55 561.92 96.48 C 560.89 95.06 559.97 93.31 560.45 91.51 C 561.37 90.23 562.54 89.15 563.64 88.01 C 561.28 85.46 560.41 82.08 560.08 78.71 C 562.39 77.43 562.84 74.97 562.97 72.55 C 560.57 72.51 558.19 72.53 555.82 72.83 Z" />
<path fill="#49370b" opacity="0.55" d=" M 465.76 74.32 C 467.03 73.53 468.33 72.41 469.93 73.10 C 470.85 77.01 466.10 76.70 463.78 75.58 C 464.27 75.27 465.26 74.64 465.76 74.32 Z" />
<path fill="#49370b" opacity="0.55" d=" M 362.19 80.88 C 363.79 77.93 364.44 73.61 368.52 73.24 C 367.41 76.88 365.71 80.28 364.17 83.74 L 365.91 83.19 C 365.42 83.46 364.43 84.00 363.93 84.26 C 364.22 83.20 364.79 81.06 365.07 79.99 C 364.35 80.21 362.91 80.66 362.19 80.88 Z" />
<path fill="#49370b" opacity="0.55" d=" M 209.07 80.18 C 215.07 79.43 220.92 77.74 226.98 77.38 C 225.68 78.85 224.31 80.58 222.16 80.57 C 213.02 81.34 204.22 84.07 195.19 85.48 C 197.20 85.76 199.20 86.14 201.13 86.79 C 196.48 87.93 191.77 88.75 187.11 89.86 C 186.50 87.33 185.65 84.78 185.77 82.15 C 186.18 83.03 186.59 83.91 187.01 84.79 C 194.41 83.49 201.62 81.25 209.07 80.18 Z" />
<path fill="#49370b" opacity="0.55" d=" M 239.09 76.79 C 239.84 79.45 240.72 82.06 241.45 84.72 C 239.27 84.49 237.11 84.05 235.04 83.31 C 236.45 82.52 237.86 81.71 239.26 80.90 C 239.20 79.53 239.15 78.16 239.09 76.79 Z" />
<path fill="#49370b" opacity="0.55" d=" M 67.76 94.80 C 71.63 92.29 74.61 88.28 79.16 86.99 C 77.90 91.34 74.64 94.71 70.43 96.31 C 69.76 95.93 68.43 95.18 67.76 94.80 Z" />
<path fill="#49370b" opacity="0.55" d=" M 564.22 98.58 C 565.39 97.42 566.54 96.23 567.69 95.03 C 568.73 97.91 569.75 100.79 570.49 103.76 C 568.19 102.90 566.53 101.16 565.22 99.16 C 565.25 101.34 565.22 103.52 565.20 105.69 C 563.73 103.60 564.27 100.97 564.22 98.58 Z" />
<path fill="#49370b" opacity="0.55" d=" M 104.09 97.36 C 106.87 96.51 109.25 98.40 109.21 101.28 C 107.12 100.70 104.27 100.01 104.09 97.36 Z" />
<path fill="#49370b" opacity="0.55" d=" M 577.76 96.77 C 580.23 98.43 581.26 101.30 580.18 104.12 C 579.51 104.04 578.18 103.87 577.51 103.79 C 577.54 101.45 577.61 99.10 577.76 96.77 Z" />
<path fill="#49370b" opacity="0.55" d=" M 379.25 102.78 C 383.82 104.78 381.74 110.25 379.13 113.09 C 378.85 109.66 378.84 106.20 379.25 102.78 Z" />
<path fill="#49370b" opacity="0.55" d=" M 44.34 105.75 C 48.13 103.71 52.48 104.01 56.62 103.59 C 56.68 104.45 56.79 106.16 56.85 107.02 C 54.78 107.23 52.71 107.60 50.62 107.53 C 48.50 107.06 46.41 106.41 44.34 105.75 Z" />
<path fill="#49370b" opacity="0.55" d=" M 404.66 103.40 C 405.96 105.26 407.41 107.00 408.93 108.68 C 409.00 110.04 409.06 111.40 409.15 112.77 C 407.60 112.45 406.05 112.14 404.51 111.84 C 404.49 109.02 404.51 106.21 404.66 103.40 Z" />
<path fill="#49370b" opacity="0.55" d=" M 492.60 110.31 C 489.60 108.84 490.80 104.40 494.21 104.47 C 493.99 106.49 494.51 108.94 492.60 110.31 Z" />
<path fill="#49370b" opacity="0.55" d=" M 410.64 140.73 C 414.09 140.79 417.54 140.71 420.98 140.33 C 424.13 140.68 427.13 141.75 430.07 142.92 C 422.76 142.39 415.41 142.39 408.10 142.84 C 408.94 142.13 409.79 141.43 410.64 140.73 Z" />
<path fill="#49370b" opacity="0.55" d=" M 330.38 141.69 C 345.25 141.80 360.12 141.63 375.00 141.50 C 377.43 141.57 380.14 141.14 382.19 142.76 C 365.70 142.28 349.23 144.08 332.73 143.55 C 331.85 144.15 330.97 144.76 330.10 145.36 C 330.18 144.14 330.27 142.91 330.38 141.69 Z" />
<path fill="#49370b" opacity="0.55" d=" M 195.31 157.70 C 195.38 155.14 195.17 152.41 196.71 150.20 C 196.99 153.27 198.09 156.16 199.15 159.03 C 197.87 158.58 196.59 158.14 195.31 157.70 Z" />
<path fill="#49370b" opacity="0.55" d=" M 389.44 151.20 L 389.91 151.65 C 390.22 151.95 390.85 152.53 391.16 152.83 C 392.70 153.92 394.33 154.89 395.95 155.86 C 397.66 156.08 399.37 156.31 401.09 156.56 C 398.92 157.87 396.67 159.01 394.49 160.27 C 393.10 159.50 391.71 158.74 390.32 157.99 C 390.78 157.01 391.24 156.03 391.70 155.05 C 390.94 153.76 390.19 152.48 389.44 151.20 Z" />
<path fill="#49370b" opacity="0.55" d=" M 120.29 161.96 C 120.16 158.52 123.29 154.57 126.97 155.52 C 125.48 158.34 123.17 160.59 120.29 161.96 Z" />
<path fill="#49370b" opacity="0.55" d=" M 347.34 159.78 C 347.45 158.79 347.56 157.80 347.67 156.82 C 349.66 159.48 353.08 158.48 355.92 158.58 C 359.14 158.23 362.15 160.52 365.35 159.53 C 368.17 159.00 372.03 156.92 373.53 160.63 C 369.04 161.32 364.56 162.32 359.99 162.33 L 361.31 160.38 C 356.65 160.06 352.00 159.90 347.34 159.78 Z" />
<path fill="#49370b" opacity="0.55" d=" M 134.22 162.76 C 136.94 162.69 139.02 160.89 141.16 159.46 C 142.03 162.35 144.53 169.25 139.27 168.65 C 138.10 167.77 136.98 166.81 135.86 165.87 C 134.18 167.17 132.48 168.43 130.70 169.59 C 131.22 167.02 132.28 164.57 134.22 162.76 Z" />
<path fill="#49370b" opacity="0.55" d=" M 400.13 162.61 C 401.38 161.38 402.74 160.28 404.12 159.19 C 402.94 167.40 401.30 175.66 398.09 183.34 C 397.22 182.34 396.36 181.34 395.49 180.34 C 395.96 178.31 396.37 176.27 396.77 174.23 C 398.06 174.33 399.35 174.45 400.65 174.57 C 399.64 173.38 398.57 172.25 397.72 170.95 C 397.11 168.00 398.64 165.06 400.13 162.61 Z" />
<path fill="#49370b" opacity="0.55" d=" M 441.35 161.28 C 444.49 161.31 443.43 168.21 440.09 166.03 C 439.82 164.32 439.96 162.49 441.35 161.28 Z" />
<path fill="#49370b" opacity="0.55" d=" M 152.93 167.55 C 152.65 165.44 151.71 162.65 154.12 161.42 C 158.69 163.36 155.67 168.83 155.33 172.31 C 154.49 170.74 153.66 169.17 152.93 167.55 Z" />
<path fill="#49370b" opacity="0.55" d=" M 107.65 177.71 C 108.94 171.88 112.88 167.08 117.61 163.61 C 117.57 164.59 117.49 166.54 117.45 167.51 C 118.04 167.52 119.24 167.53 119.83 167.53 C 119.38 169.05 119.04 170.60 118.62 172.13 C 118.26 172.22 117.52 172.40 117.16 172.48 C 116.67 171.22 116.23 169.94 115.82 168.65 C 113.24 171.80 111.17 175.49 107.65 177.71 Z" />
<path fill="#49370b" opacity="0.55" d=" M 471.18 172.89 C 471.02 170.90 470.79 168.83 471.61 166.95 C 471.85 169.54 471.99 172.35 474.28 174.06 C 473.34 175.40 472.37 176.71 471.40 178.02 C 470.76 177.42 469.49 176.22 468.86 175.62 C 469.63 174.70 470.40 173.80 471.18 172.89 Z" />
<path fill="#49370b" opacity="0.55" d=" M 201.91 170.59 C 202.44 170.29 203.51 169.70 204.04 169.41 C 202.92 173.40 201.77 177.39 200.69 181.39 C 198.98 180.96 197.54 179.94 197.31 178.08 C 199.23 175.82 200.75 173.31 201.91 170.59 Z" />
<path fill="#49370b" opacity="0.55" d=" M 480.60 175.31 C 481.24 173.02 482.04 170.66 484.16 169.30 C 484.26 173.55 482.83 177.63 480.94 181.38 C 477.11 181.95 478.75 176.79 480.60 175.31 Z" />
<path fill="#49370b" opacity="0.55" d=" M 151.49 176.09 C 153.13 174.68 154.98 173.57 156.92 172.63 C 156.61 175.77 155.53 178.75 154.18 181.59 C 152.97 180.04 151.80 178.46 150.63 176.89 C 150.91 176.61 151.20 176.34 151.49 176.09 Z" />
<path fill="#49370b" opacity="0.55" d=" M 104.81 180.84 C 105.84 182.17 106.87 183.50 107.91 184.83 C 106.93 186.95 105.90 189.07 104.51 190.97 C 104.45 190.39 104.31 189.23 104.24 188.65 C 102.73 189.44 101.24 190.23 99.74 191.02 C 101.54 187.68 103.18 184.26 104.81 180.84 Z" />
<path fill="#49370b" opacity="0.55" d=" M 483.24 185.19 C 484.14 184.14 485.07 183.09 485.99 182.04 C 485.73 182.88 485.22 184.56 484.97 185.40 C 487.30 186.30 489.77 186.98 492.31 186.81 C 494.16 186.79 496.01 186.62 497.87 186.67 C 497.83 187.16 497.75 188.12 497.71 188.60 C 494.45 190.61 490.50 189.92 486.88 190.08 C 485.64 188.46 484.41 186.84 483.24 185.19 Z" />
<path fill="#49370b" opacity="0.55" d=" M 79.12 182.82 C 80.10 190.53 80.22 198.32 81.08 206.05 C 81.64 211.65 82.11 217.45 80.33 222.90 C 79.31 214.62 80.09 206.26 79.13 197.99 C 78.67 192.94 79.53 187.88 79.12 182.82 Z" />
<path fill="#49370b" opacity="0.55" d=" M 523.02 185.35 C 526.58 184.11 530.32 184.67 533.46 186.71 L 533.18 186.71 C 529.76 186.67 526.19 186.86 523.02 185.35 Z" />
<path fill="#49370b" opacity="0.55" d=" M 82.61 196.31 C 83.04 192.39 81.27 187.69 83.80 184.30 C 84.08 188.34 83.60 192.40 82.61 196.31 Z" />
<path fill="#49370b" opacity="0.55" d=" M 184.85 189.90 C 185.13 188.18 185.00 184.20 187.76 185.28 C 187.95 186.80 187.96 188.34 188.00 189.88 C 187.22 189.89 185.64 189.90 184.85 189.90 Z" />
<path fill="#49370b" opacity="0.55" d=" M 466.48 185.19 C 467.19 185.11 468.59 184.96 469.29 184.88 C 469.47 187.72 468.23 190.17 465.25 190.65 C 465.63 188.82 466.05 187.00 466.48 185.19 Z" />
<path fill="#49370b" opacity="0.55" d=" M 203.71 186.26 C 206.61 186.21 209.51 186.28 212.42 186.12 L 211.99 187.75 C 213.72 187.70 218.98 184.63 217.82 188.59 C 213.54 190.12 208.94 190.15 204.46 189.99 C 205.05 189.64 206.23 188.94 206.82 188.59 C 205.77 187.82 204.73 187.04 203.71 186.26 Z" />
<path fill="#49370b" opacity="0.55" d=" M 321.64 198.74 C 322.93 194.69 320.82 189.58 324.22 186.35 C 325.00 192.57 324.38 198.85 325.16 205.07 C 325.64 209.76 324.84 214.44 323.89 219.01 C 322.67 218.55 321.46 218.08 320.25 217.62 C 321.02 211.34 319.88 204.91 321.64 198.74 Z" />
<path fill="#49370b" opacity="0.55" d=" M 392.46 189.50 C 392.85 189.00 393.62 188.01 394.01 187.51 C 395.04 188.82 397.22 189.81 396.75 191.80 C 396.66 193.61 394.29 193.82 393.10 194.67 C 392.88 192.94 392.67 191.22 392.46 189.50 Z" />
<path fill="#49370b" opacity="0.55" d=" M 339.02 192.60 C 343.56 191.94 348.15 192.36 352.71 192.06 C 352.18 192.59 351.12 193.64 350.60 194.16 C 354.82 194.17 359.42 192.07 363.34 194.47 C 358.52 195.56 353.56 195.96 348.62 195.66 C 349.50 195.28 350.38 194.88 351.26 194.48 C 347.62 194.33 343.87 194.16 340.39 195.43 C 340.11 195.51 339.55 195.68 339.27 195.77 C 338.99 196.34 338.43 197.47 338.16 198.04 C 338.49 196.23 338.74 194.42 339.02 192.60 Z" />
<path fill="#49370b" opacity="0.55" d=" M 289.66 193.49 C 290.59 193.52 291.53 193.55 292.46 193.59 C 291.95 196.19 291.48 198.80 291.06 201.41 C 291.76 201.56 293.16 201.86 293.86 202.01 C 293.69 206.52 292.14 213.87 286.22 213.08 C 286.62 209.12 286.70 205.04 288.34 201.35 C 289.49 198.89 289.53 196.15 289.66 193.49 Z" />
<path fill="#49370b" opacity="0.55" d=" M 497.33 196.86 C 499.23 195.83 502.03 193.84 503.75 196.30 C 506.24 199.09 504.30 202.62 502.12 204.86 C 502.45 206.71 502.79 208.55 503.14 210.41 C 504.07 209.77 505.00 209.13 505.94 208.50 C 506.05 211.00 506.11 213.52 506.54 216.00 C 505.42 217.86 505.88 221.60 502.96 221.52 C 502.35 218.71 502.48 215.82 503.34 213.08 C 501.49 209.76 501.03 205.94 499.86 202.38 C 500.51 202.50 501.16 202.67 501.82 202.84 C 502.29 201.16 502.69 199.47 503.12 197.78 C 501.18 197.48 499.24 197.18 497.33 196.86 Z" />
<path fill="#49370b" opacity="0.55" d=" M 329.95 213.05 C 330.16 207.73 331.25 202.44 332.75 197.34 C 333.76 199.79 334.70 202.28 335.27 204.87 C 335.38 205.99 335.31 207.12 335.35 208.25 C 334.08 208.46 332.82 208.66 331.56 208.87 C 331.48 210.42 331.40 211.98 331.32 213.54 C 333.59 213.38 335.87 213.22 338.14 213.09 C 335.46 213.24 332.44 214.46 329.95 213.05 Z" />
<path fill="#49370b" opacity="0.55" d=" M 196.74 203.74 C 198.60 200.03 202.87 200.15 206.39 199.66 C 206.60 200.69 208.56 202.02 206.99 202.84 C 203.60 203.38 200.17 203.69 196.74 203.74 Z" />
<path fill="#49370b" opacity="0.55" d=" M 488.14 202.26 C 491.15 202.10 494.14 201.73 497.11 201.23 C 496.46 202.67 495.80 204.10 495.14 205.54 C 494.55 205.31 493.37 204.84 492.78 204.61 C 491.19 203.89 489.64 203.12 488.14 202.26 Z" />
<path fill="#49370b" opacity="0.55" d=" M 220.33 204.10 C 220.25 202.65 222.06 202.39 222.93 201.65 C 222.76 202.99 222.53 204.33 222.29 205.66 C 224.75 209.41 226.14 213.69 227.05 218.05 C 225.68 219.26 224.32 220.49 222.96 221.71 C 222.28 220.19 221.47 218.71 221.12 217.07 C 220.65 214.74 223.10 213.52 224.40 212.06 C 223.72 211.96 222.36 211.77 221.68 211.67 C 221.17 209.16 220.38 206.68 220.33 204.10 Z" />
<path fill="#49370b" opacity="0.55" d=" M 258.85 214.06 C 255.45 211.28 256.88 204.79 260.33 202.75 L 260.71 203.10 C 260.96 206.87 260.01 210.52 258.85 214.06 Z" />
<path fill="#49370b" opacity="0.55" d=" M 278.29 203.34 C 278.64 203.58 279.32 204.06 279.66 204.30 C 279.65 209.39 279.73 214.48 279.53 219.57 C 275.32 214.84 279.61 208.73 278.29 203.34 Z" />
<path fill="#49370b" opacity="0.55" d=" M 162.32 213.25 C 162.51 210.10 162.97 206.97 163.73 203.90 C 164.17 207.61 164.77 211.38 163.96 215.08 C 163.55 214.63 162.73 213.71 162.32 213.25 Z" />
<path fill="#49370b" opacity="0.55" d=" M 241.18 225.91 C 241.18 220.88 241.34 215.86 241.87 210.87 C 241.79 216.63 242.76 222.32 243.26 228.04 C 243.76 229.94 242.00 230.87 240.72 231.79 C 240.82 230.81 241.02 228.86 241.12 227.88 C 239.98 228.27 238.87 228.81 237.65 228.85 C 237.48 226.39 237.63 223.93 237.78 221.48 C 238.94 222.94 240.06 224.42 241.18 225.91 Z" />
<path fill="#49370b" opacity="0.55" d=" M 222.87 226.98 C 222.49 224.10 225.51 222.28 227.55 220.82 C 227.19 222.32 226.74 223.79 226.29 225.26 C 227.82 225.19 229.36 225.12 230.89 225.07 C 228.87 226.63 226.84 228.20 224.62 229.47 C 222.96 230.78 223.30 227.87 222.87 226.98 Z" />
<path fill="#49370b" opacity="0.55" d=" M 508.42 221.24 C 509.10 223.08 509.71 224.95 510.32 226.83 C 509.08 227.30 507.84 227.77 506.61 228.24 C 506.76 230.06 506.60 231.97 507.23 233.71 C 507.51 233.83 508.08 234.06 508.37 234.18 C 507.90 234.54 506.95 235.24 506.48 235.60 C 504.39 231.62 504.34 227.15 504.37 222.77 C 505.71 222.25 507.06 221.75 508.42 221.24 Z" />
<path fill="#49370b" opacity="0.55" d=" M 517.40 221.84 C 521.43 222.28 521.07 226.81 521.65 229.81 C 518.02 228.73 517.73 224.98 517.40 221.84 Z" />
<path fill="#49370b" opacity="0.55" d=" M 429.20 223.41 C 430.80 223.84 433.60 224.51 432.68 226.75 C 432.72 228.56 430.26 226.93 429.22 227.12 C 429.21 226.19 429.21 224.34 429.20 223.41 Z" />
<path fill="#49370b" opacity="0.55" d=" M 455.20 224.56 C 456.43 224.75 457.66 224.99 458.89 225.27 C 458.82 227.70 458.19 230.07 457.36 232.35 C 457.19 232.76 456.86 233.60 456.70 234.02 C 455.75 233.39 454.81 232.76 453.99 231.98 C 453.97 229.46 454.69 227.01 455.20 224.56 Z" />
<path fill="#49370b" opacity="0.55" d=" M 433.11 232.76 C 433.62 232.30 434.66 231.38 435.17 230.91 C 437.58 232.70 439.39 235.05 438.27 238.20 C 436.20 236.75 434.30 235.08 432.58 233.24 L 433.11 232.76 Z" />
<path fill="#49370b" opacity="0.55" d=" M 405.55 262.51 C 406.98 262.08 408.44 261.70 409.96 261.70 C 435.99 261.73 462.03 261.71 488.06 261.71 C 500.67 260.74 513.34 261.02 525.98 260.93 C 551.63 262.16 577.33 261.36 603.00 261.90 C 606.91 262.28 610.83 262.93 614.77 262.57 C 615.01 263.07 615.49 264.06 615.73 264.55 C 619.22 264.52 622.71 264.52 626.20 264.52 C 626.66 265.60 627.13 266.69 627.61 267.78 C 622.89 267.21 618.04 268.29 613.41 266.95 C 609.52 265.84 606.32 262.51 602.04 262.92 C 585.36 263.07 568.66 262.29 551.98 263.06 C 542.67 264.20 533.38 262.25 524.05 262.80 C 484.55 262.47 445.04 263.09 405.55 262.51 Z" />
<path fill="#49370b" opacity="0.55" d=" M 328.99 267.05 C 331.17 267.31 333.37 267.53 335.57 267.74 C 334.11 269.17 332.65 270.58 331.18 272.00 C 332.10 273.07 333.01 274.14 333.93 275.22 C 338.46 275.10 343.02 275.04 347.51 275.70 C 343.23 277.25 338.68 279.37 334.02 278.31 C 331.53 277.52 330.13 275.31 329.90 272.80 C 329.38 272.67 328.34 272.41 327.81 272.28 C 328.39 270.60 330.05 268.89 328.99 267.05 Z" />
<path fill="#49370b" opacity="0.55" d=" M 590.07 273.98 C 595.75 273.77 601.30 272.33 606.95 271.77 C 609.11 271.80 611.95 271.19 613.32 273.37 C 610.43 273.79 607.53 274.11 604.63 274.41 C 605.29 274.77 606.61 275.50 607.27 275.86 C 599.60 276.28 592.00 278.35 584.30 277.56 C 583.20 277.03 582.23 276.30 581.23 275.62 C 578.58 275.45 575.94 275.35 573.29 275.24 C 573.52 276.44 573.74 277.64 573.97 278.85 C 569.97 278.35 566.03 277.29 561.98 277.35 C 558.85 277.33 555.71 277.93 552.59 277.52 C 551.99 276.58 551.45 275.62 550.96 274.63 C 554.95 274.84 558.95 274.71 562.96 274.78 C 566.34 274.78 569.90 275.07 573.03 273.51 C 578.72 273.07 584.38 274.23 590.07 273.98 Z" />
<path fill="#49370b" opacity="0.55" d=" M 514.01 275.43 C 526.34 275.71 538.62 273.08 550.96 274.63 C 547.79 275.41 544.53 275.42 541.31 275.41 C 541.39 275.95 541.56 277.03 541.64 277.57 C 535.71 276.87 529.96 278.85 524.05 278.62 C 520.84 278.59 517.63 278.56 514.43 278.63 C 514.54 278.04 514.77 276.85 514.88 276.25 C 512.72 277.35 510.60 278.97 508.04 278.76 C 500.03 278.69 492.01 278.44 484.00 278.78 C 474.71 279.60 465.36 279.58 456.04 279.64 C 445.03 280.35 434.01 279.78 422.99 279.81 C 414.70 279.04 406.30 280.18 398.09 278.59 C 386.72 277.54 375.24 279.88 363.94 277.76 C 360.50 277.10 356.49 278.50 353.54 276.14 C 361.01 275.69 368.47 276.47 375.95 276.39 C 381.69 276.43 387.38 275.42 393.13 275.59 C 403.58 275.91 414.05 274.95 424.49 276.07 C 424.49 276.45 424.48 277.21 424.48 277.59 C 428.27 277.52 432.05 277.52 435.84 277.58 C 435.66 277.01 435.31 275.87 435.14 275.31 C 440.56 275.79 446.00 275.55 451.43 275.20 C 448.42 275.90 445.38 276.50 442.38 277.24 C 445.02 277.67 447.67 278.08 450.32 278.49 C 451.43 277.37 452.54 276.25 453.65 275.13 C 458.12 275.64 462.54 276.45 467.00 277.10 C 469.66 275.88 472.56 275.06 475.50 275.66 C 485.03 277.32 494.64 274.40 504.17 275.88 C 507.46 276.46 510.72 275.42 514.01 275.43 Z" />
</g>
</svg>
